<svg xmlns="http://www.w3.org/2000/svg" viewBox="0 0 1525.09 159.01"><defs><style>.cls-1{fill:#319431;}.cls-2{fill:#333;}.cls-3{fill:#666;}.cls-4{fill:#754c24;}.cls-5{fill:#733621;}.cls-6{fill:#e09724;}.cls-7{fill:#7e5b00;}.cls-8{fill:#002854;stroke:#fff;stroke-width:2px;}.cls-10,.cls-11,.cls-8{stroke-miterlimit:10;}.cls-9{font-size:10px;font-family:Tahoma-Bold, Tahoma;font-weight:700;}.cls-10,.cls-9{fill:#fff;}.cls-10,.cls-11{stroke:#000;}.cls-11{fill:none;}.cls-12{fill:#359bff;}.cls-13{fill:#003e94;}</style></defs><title>lokaltog_stations</title><g id="Ground"><rect class="cls-1" y="134.8" width="1525.09" height="24.21"/></g><g id="Rail"><rect class="cls-2" x="306.05" y="132.19" width="913" height="2.6"/><rect class="cls-3" x="306.05" y="131.02" width="913" height="1.17"/><rect class="cls-4" x="312.19" y="134.79" width="7.15" height="2.86"/><rect class="cls-4" x="332.59" y="134.79" width="7.15" height="2.86"/><rect class="cls-4" x="352.99" y="134.79" width="7.15" height="2.86"/><rect class="cls-4" x="373.4" y="134.79" width="7.15" height="2.86"/><rect class="cls-4" x="393.8" y="134.79" width="7.15" height="2.86"/><rect class="cls-4" x="414.2" y="134.79" width="7.15" height="2.86"/><rect class="cls-4" x="434.61" y="134.79" width="7.15" height="2.86"/><rect class="cls-4" x="455.01" y="134.79" width="7.15" height="2.86"/><rect class="cls-4" x="475.41" y="134.79" width="7.15" height="2.86"/><rect class="cls-4" x="495.81" y="134.79" width="7.15" height="2.86"/><rect class="cls-4" x="516.22" y="134.79" width="7.15" height="2.86"/><rect class="cls-4" x="536.62" y="134.79" width="7.15" height="2.86"/><rect class="cls-4" x="557.02" y="134.79" width="7.15" height="2.86"/><rect class="cls-4" x="577.43" y="134.79" width="7.15" height="2.86"/><rect class="cls-4" x="597.83" y="134.79" width="7.15" height="2.86"/><rect class="cls-4" x="618.23" y="134.79" width="7.15" height="2.86"/><rect class="cls-4" x="638.64" y="134.79" width="7.15" height="2.86"/><rect class="cls-4" x="659.04" y="134.79" width="7.15" height="2.86"/><rect class="cls-4" x="679.44" y="134.79" width="7.15" height="2.86"/><rect class="cls-4" x="699.84" y="134.79" width="7.15" height="2.86"/><rect class="cls-4" x="720.25" y="134.79" width="7.15" height="2.86"/><rect class="cls-4" x="740.65" y="134.79" width="7.15" height="2.86"/><rect class="cls-4" x="761.05" y="134.79" width="7.15" height="2.86"/><rect class="cls-4" x="781.46" y="134.79" width="7.15" height="2.86"/><rect class="cls-4" x="801.86" y="134.79" width="7.15" height="2.86"/><rect class="cls-4" x="822.26" y="134.79" width="7.15" height="2.86"/><rect class="cls-4" x="842.66" y="134.79" width="7.15" height="2.86"/><rect class="cls-4" x="863.07" y="134.79" width="7.15" height="2.86"/><rect class="cls-4" x="883.47" y="134.79" width="7.15" height="2.86"/><rect class="cls-4" x="903.87" y="134.79" width="7.15" height="2.86"/><rect class="cls-4" x="924.28" y="134.79" width="7.15" height="2.86"/><rect class="cls-4" x="944.68" y="134.79" width="7.15" height="2.86"/><rect class="cls-4" x="965.08" y="134.79" width="7.15" height="2.86"/><rect class="cls-4" x="985.49" y="134.79" width="7.15" height="2.86"/><rect class="cls-4" x="1005.89" y="134.79" width="7.15" height="2.86"/><rect class="cls-4" x="1026.29" y="134.79" width="7.15" height="2.86"/><rect class="cls-4" x="1046.69" y="134.79" width="7.15" height="2.86"/><rect class="cls-4" x="1067.1" y="134.79" width="7.15" height="2.86"/><rect class="cls-4" x="1087.5" y="134.79" width="7.15" height="2.86"/><rect class="cls-4" x="1107.9" y="134.79" width="7.15" height="2.86"/><rect class="cls-4" x="1128.31" y="134.79" width="7.15" height="2.86"/><rect class="cls-4" x="1148.71" y="134.79" width="7.15" height="2.86"/><rect class="cls-4" x="1169.11" y="134.79" width="7.15" height="2.86"/><rect class="cls-4" x="1189.52" y="134.79" width="7.15" height="2.86"/><rect class="cls-4" x="1209.92" y="134.79" width="7.15" height="2.86"/></g><g id="Jaegersborg"><polygon class="cls-5" points="1468.09 0 1236.34 0 1202.45 39.14 1501.97 39.14 1468.09 0"/><rect class="cls-6" x="1219.04" y="39.14" width="266.34" height="95.67"/><path class="cls-7" d="M1266,67.95h0a21.26,21.26,0,0,1,21.26,21.26v45.41a0,0,0,0,1,0,0h-42.53a0,0,0,0,1,0,0V89.21A21.26,21.26,0,0,1,1266,67.95Z"/><path class="cls-7" d="M1323.47,54.36h0a21.26,21.26,0,0,1,21.26,21.26v59.55a0,0,0,0,1,0,0h-42.53a0,0,0,0,1,0,0V75.62A21.26,21.26,0,0,1,1323.47,54.36Z"/><path class="cls-7" d="M1438.43,67.95h0a21.26,21.26,0,0,1,21.26,21.26v45.41a0,0,0,0,1,0,0h-42.53a0,0,0,0,1,0,0V89.21A21.26,21.26,0,0,1,1438.43,67.95Z"/><path class="cls-7" d="M1381,54.36h0a21.26,21.26,0,0,1,21.26,21.26v59.55a0,0,0,0,1,0,0h-42.53a0,0,0,0,1,0,0V75.62A21.26,21.26,0,0,1,1381,54.36Z"/><rect class="cls-8" x="1302.51" y="10.42" width="99.41" height="18.29"/><text class="cls-9" transform="translate(1316.53 22.71)">JÆGERSBORG</text><circle class="cls-10" cx="1352.21" cy="54.36" r="9.9"/><line class="cls-11" x1="1352.21" y1="55.56" x2="1352.21" y2="46.87"/><line class="cls-11" x1="1351.15" y1="54.36" x2="1356.62" y2="54.36"/></g><g id="Naerum"><polygon class="cls-5" points="288.75 0 57 0 23.12 39.14 322.64 39.14 288.75 0"/><rect class="cls-12" x="39.71" y="39.14" width="266.34" height="95.67"/><path class="cls-13" d="M86.66,67.95h0a21.26,21.26,0,0,1,21.26,21.26v45.41a0,0,0,0,1,0,0H65.4a0,0,0,0,1,0,0V89.21A21.26,21.26,0,0,1,86.66,67.95Z"/><path class="cls-13" d="M144.14,54.36h0A21.26,21.26,0,0,1,165.4,75.62v59.55a0,0,0,0,1,0,0H122.87a0,0,0,0,1,0,0V75.62a21.26,21.26,0,0,1,21.26-21.26Z"/><path class="cls-13" d="M259.09,67.95h0a21.26,21.26,0,0,1,21.26,21.26v45.41a0,0,0,0,1,0,0H237.83a0,0,0,0,1,0,0V89.21A21.26,21.26,0,0,1,259.09,67.95Z"/><path class="cls-13" d="M201.62,54.36h0a21.26,21.26,0,0,1,21.26,21.26v59.55a0,0,0,0,1,0,0H180.35a0,0,0,0,1,0,0V75.62A21.26,21.26,0,0,1,201.62,54.36Z"/><rect class="cls-8" x="144.14" y="10.42" width="57.48" height="18.29"/><text class="cls-9" transform="translate(152.29 23.72)">NÆRUM</text><circle class="cls-10" cx="172.88" cy="54.36" r="9.9"/><line class="cls-11" x1="172.88" y1="55.56" x2="172.88" y2="46.87"/><line class="cls-11" x1="171.81" y1="54.36" x2="177.29" y2="54.36"/></g></svg>