<svg xmlns="http://www.w3.org/2000/svg" viewBox="0 0 1525.09 277.82"><defs><style>.cls-1{fill:#319431;}.cls-2{fill:#9fe0ff;}.cls-3{fill:#333;}.cls-4{fill:#666;}.cls-5{fill:#754c24;}.cls-6{fill:#733621;}.cls-7{fill:#e09724;}.cls-8{fill:#7e5b00;}.cls-9{fill:#002854;stroke:#fff;stroke-width:2px;}.cls-11,.cls-12,.cls-9{stroke-miterlimit:10;}.cls-10{font-size:10px;font-family:Tahoma-Bold, Tahoma;font-weight:700;}.cls-10,.cls-11{fill:#fff;}.cls-11,.cls-12{stroke:#000;}.cls-12{fill:none;}.cls-13{fill:#359bff;}.cls-14{fill:#003e94;}</style></defs><title>lokaltog_stations_02</title><g id="Ground"><rect class="cls-1" y="253.6" width="1525.09" height="24.21"/><rect class="cls-2" width="1525.09" height="253.6"/></g><g id="Rail"><rect class="cls-3" x="306.05" y="250.99" width="913" height="2.6"/><rect class="cls-4" x="306.05" y="249.82" width="913" height="1.17"/><rect class="cls-5" x="312.19" y="253.59" width="7.15" height="2.86"/><rect class="cls-5" x="332.59" y="253.59" width="7.15" height="2.86"/><rect class="cls-5" x="352.99" y="253.59" width="7.15" height="2.86"/><rect class="cls-5" x="373.4" y="253.59" width="7.15" height="2.86"/><rect class="cls-5" x="393.8" y="253.59" width="7.15" height="2.86"/><rect class="cls-5" x="414.2" y="253.59" width="7.15" height="2.86"/><rect class="cls-5" x="434.61" y="253.59" width="7.15" height="2.86"/><rect class="cls-5" x="455.01" y="253.59" width="7.15" height="2.86"/><rect class="cls-5" x="475.41" y="253.59" width="7.15" height="2.86"/><rect class="cls-5" x="495.81" y="253.59" width="7.15" height="2.86"/><rect class="cls-5" x="516.22" y="253.59" width="7.15" height="2.86"/><rect class="cls-5" x="536.62" y="253.59" width="7.15" height="2.86"/><rect class="cls-5" x="557.02" y="253.59" width="7.15" height="2.86"/><rect class="cls-5" x="577.43" y="253.59" width="7.15" height="2.86"/><rect class="cls-5" x="597.83" y="253.59" width="7.15" height="2.86"/><rect class="cls-5" x="618.23" y="253.59" width="7.15" height="2.86"/><rect class="cls-5" x="638.64" y="253.59" width="7.15" height="2.86"/><rect class="cls-5" x="659.04" y="253.59" width="7.15" height="2.86"/><rect class="cls-5" x="679.44" y="253.59" width="7.15" height="2.86"/><rect class="cls-5" x="699.84" y="253.59" width="7.15" height="2.86"/><rect class="cls-5" x="720.25" y="253.59" width="7.15" height="2.86"/><rect class="cls-5" x="740.65" y="253.59" width="7.15" height="2.86"/><rect class="cls-5" x="761.05" y="253.59" width="7.15" height="2.86"/><rect class="cls-5" x="781.46" y="253.59" width="7.15" height="2.86"/><rect class="cls-5" x="801.86" y="253.59" width="7.15" height="2.86"/><rect class="cls-5" x="822.26" y="253.59" width="7.15" height="2.86"/><rect class="cls-5" x="842.66" y="253.59" width="7.15" height="2.86"/><rect class="cls-5" x="863.07" y="253.59" width="7.15" height="2.86"/><rect class="cls-5" x="883.47" y="253.59" width="7.15" height="2.86"/><rect class="cls-5" x="903.87" y="253.59" width="7.15" height="2.86"/><rect class="cls-5" x="924.28" y="253.59" width="7.15" height="2.86"/><rect class="cls-5" x="944.68" y="253.59" width="7.15" height="2.86"/><rect class="cls-5" x="965.08" y="253.59" width="7.15" height="2.86"/><rect class="cls-5" x="985.49" y="253.59" width="7.15" height="2.86"/><rect class="cls-5" x="1005.89" y="253.59" width="7.15" height="2.86"/><rect class="cls-5" x="1026.29" y="253.59" width="7.15" height="2.86"/><rect class="cls-5" x="1046.69" y="253.59" width="7.15" height="2.86"/><rect class="cls-5" x="1067.1" y="253.59" width="7.15" height="2.86"/><rect class="cls-5" x="1087.5" y="253.59" width="7.15" height="2.86"/><rect class="cls-5" x="1107.9" y="253.59" width="7.15" height="2.86"/><rect class="cls-5" x="1128.31" y="253.59" width="7.15" height="2.86"/><rect class="cls-5" x="1148.71" y="253.59" width="7.15" height="2.86"/><rect class="cls-5" x="1169.11" y="253.59" width="7.15" height="2.86"/><rect class="cls-5" x="1189.52" y="253.59" width="7.15" height="2.86"/><rect class="cls-5" x="1209.92" y="253.59" width="7.15" height="2.86"/></g><g id="Jaegersborg"><polygon class="cls-6" points="1468.09 118.8 1236.34 118.8 1202.45 157.94 1501.97 157.94 1468.09 118.8"/><rect class="cls-7" x="1219.04" y="157.94" width="266.34" height="95.67"/><path class="cls-8" d="M1266,186.75h0A21.26,21.26,0,0,1,1287.26,208v45.41a0,0,0,0,1,0,0h-42.53a0,0,0,0,1,0,0V208A21.26,21.26,0,0,1,1266,186.75Z"/><path class="cls-8" d="M1323.47,173.16h0a21.26,21.26,0,0,1,21.26,21.26V254a0,0,0,0,1,0,0h-42.53a0,0,0,0,1,0,0V194.42A21.26,21.26,0,0,1,1323.47,173.16Z"/><path class="cls-8" d="M1438.43,186.75h0A21.26,21.26,0,0,1,1459.69,208v45.41a0,0,0,0,1,0,0h-42.53a0,0,0,0,1,0,0V208A21.26,21.26,0,0,1,1438.43,186.75Z"/><path class="cls-8" d="M1381,173.16h0a21.26,21.26,0,0,1,21.26,21.26V254a0,0,0,0,1,0,0h-42.53a0,0,0,0,1,0,0V194.42A21.26,21.26,0,0,1,1381,173.16Z"/><rect class="cls-9" x="1302.51" y="129.22" width="99.41" height="18.29"/><text class="cls-10" transform="translate(1316.53 141.52)">JÆGERSBORG</text><circle class="cls-11" cx="1352.21" cy="173.16" r="9.9"/><line class="cls-12" x1="1352.21" y1="174.37" x2="1352.21" y2="165.67"/><line class="cls-12" x1="1351.15" y1="173.16" x2="1356.62" y2="173.16"/></g><g id="Naerum"><polygon class="cls-6" points="288.75 118.8 57 118.8 23.12 157.94 322.64 157.94 288.75 118.8"/><rect class="cls-13" x="39.71" y="157.94" width="266.34" height="95.67"/><path class="cls-14" d="M86.66,186.75h0A21.26,21.26,0,0,1,107.92,208v45.41a0,0,0,0,1,0,0H65.4a0,0,0,0,1,0,0V208a21.26,21.26,0,0,1,21.26-21.26Z"/><path class="cls-14" d="M144.14,173.16h0a21.26,21.26,0,0,1,21.26,21.26V254a0,0,0,0,1,0,0H122.87a0,0,0,0,1,0,0V194.42a21.26,21.26,0,0,1,21.26-21.26Z"/><path class="cls-14" d="M259.09,186.75h0A21.26,21.26,0,0,1,280.36,208v45.41a0,0,0,0,1,0,0H237.83a0,0,0,0,1,0,0V208a21.26,21.26,0,0,1,21.26-21.26Z"/><path class="cls-14" d="M201.62,173.16h0a21.26,21.26,0,0,1,21.26,21.26V254a0,0,0,0,1,0,0H180.35a0,0,0,0,1,0,0V194.42A21.26,21.26,0,0,1,201.62,173.16Z"/><rect class="cls-9" x="144.14" y="129.22" width="57.48" height="18.29"/><text class="cls-10" transform="translate(152.29 142.53)">NÆRUM</text><circle class="cls-11" cx="172.88" cy="173.16" r="9.9"/><line class="cls-12" x1="172.88" y1="174.37" x2="172.88" y2="165.67"/><line class="cls-12" x1="171.81" y1="173.16" x2="177.29" y2="173.16"/></g><g id="Stations"><rect class="cls-9" x="1023.23" y="177.6" width="87.74" height="18.29"/><text class="cls-10" transform="translate(1029.08 190.61)">NØRGÅRDSVEJ</text><rect class="cls-3" x="1062.67" y="194.88" width="3.68" height="54.94"/><rect class="cls-9" x="896.97" y="177.6" width="85.51" height="18.29"/><text class="cls-10" transform="translate(901.21 190.61)">LYNGBY LOKAL</text><rect class="cls-3" x="935.3" y="194.88" width="3.68" height="54.94"/><rect class="cls-9" x="779.95" y="177.6" width="64.81" height="18.29"/><text class="cls-10" transform="translate(785.51 190.61)">FUGLEVAD</text><rect class="cls-3" x="807.93" y="194.88" width="3.68" height="54.94"/><rect class="cls-9" x="660.23" y="177.6" width="49.52" height="18.29"/><text class="cls-10" transform="translate(667.99 190.61)">BREDE</text><rect class="cls-3" x="680.56" y="194.88" width="3.68" height="54.94"/><rect class="cls-9" x="528.41" y="177.45" width="58.41" height="18.29"/><text class="cls-10" transform="translate(535.14 190.46)">ØRHOLM</text><rect class="cls-3" x="553.2" y="194.73" width="3.68" height="54.94"/><rect class="cls-9" x="393.31" y="177.45" width="73.88" height="18.29"/><text class="cls-10" transform="translate(400.97 190.46)">RAVNHOLM</text><rect class="cls-3" x="425.83" y="194.73" width="3.68" height="54.94"/></g></svg>