<svg id="Train" xmlns="http://www.w3.org/2000/svg" viewBox="0 0 329.45 57.16"><defs><style>.cls-1{fill:#1a1a1a;}.cls-2{fill:#e0c70a;}.cls-3{fill:#666;}.cls-4{fill:#534741;}</style></defs><title>lokaltog_02</title><circle class="cls-1" cx="44.15" cy="51.44" r="5.71"/><circle class="cls-1" cx="56.17" cy="51.44" r="5.71"/><circle class="cls-1" cx="158.44" cy="51.44" r="5.71"/><path class="cls-2" d="M6993,6468.09h-71.51c-29.19,0-42.2,38.1-42.2,52.85h35.13c3.11,0,1.58-5.86,4.8-5.9,1.11,0,2.74,0,4.6,0C6932.91,6498.2,6951.77,6473.27,6993,6468.09Z" transform="translate(-6879.32 -6468.09)"/><path class="cls-3" d="M6931.21,6515v0l8.84,0c1.46,0,1.95,5.9,3.83,5.9H7029c1.89,0,1.9-5.9,3.77-5.9h9.49v-46.95H6993c-41.26,5.18-60.12,30.11-69.18,46.92Z" transform="translate(-6879.32 -6468.09)"/><path d="M6923.47,6475h-1.95a25.18,25.18,0,0,0-14.88,4.9,42.27,42.27,0,0,0-11.24,12.66c-1,1.59-1.84,3.2-2.63,4.81h30.7Z" transform="translate(-6879.32 -6468.09)"/><rect x="47.66" y="6.94" width="16.3" height="22.36"/><rect x="65.6" y="6.94" width="16.3" height="22.36"/><rect x="87.98" y="8.35" width="23.61" height="44.51"/><rect x="117.67" y="6.94" width="16.3" height="22.36"/><rect x="135.62" y="6.94" width="16.3" height="22.36"/><rect class="cls-4" x="162.9" width="1.83" height="46.95"/><circle class="cls-1" cx="285.3" cy="51.44" r="5.71"/><circle class="cls-1" cx="273.29" cy="51.44" r="5.71"/><circle class="cls-1" cx="171.01" cy="51.44" r="5.71"/><path class="cls-2" d="M7095.07,6468.09h71.51c29.19,0,42.2,38.1,42.2,52.85h-35.13c-3.12,0-1.58-5.86-4.8-5.9-1.11,0-2.75,0-4.6,0C7155.19,6498.2,7136.33,6473.27,7095.07,6468.09Z" transform="translate(-6879.32 -6468.09)"/><path class="cls-3" d="M7156.89,6515v0l-8.84,0c-1.46,0-2,5.9-3.83,5.9h-85.09c-1.89,0-1.9-5.9-3.77-5.9h-9.49v-46.95h49.19c41.26,5.18,60.12,30.11,69.18,46.92Z" transform="translate(-6879.32 -6468.09)"/><path d="M7164.63,6475h1.95a25.2,25.2,0,0,1,14.88,4.9,42.24,42.24,0,0,1,11.23,12.66c1,1.59,1.84,3.2,2.64,4.81h-30.7Z" transform="translate(-6879.32 -6468.09)"/><rect x="7144.82" y="6475.02" width="16.3" height="22.36" transform="translate(7426.62 6504.32) rotate(180)"/><rect x="7126.87" y="6475.02" width="16.3" height="22.36" transform="translate(7390.72 6504.32) rotate(180)"/><rect x="7097.19" y="6476.43" width="23.61" height="44.51" transform="translate(7338.65 6529.29) rotate(180)"/><rect x="7074.81" y="6475.02" width="16.3" height="22.36" transform="translate(7286.59 6504.32) rotate(180)"/><rect x="7056.86" y="6475.02" width="16.3" height="22.36" transform="translate(7250.69 6504.32) rotate(180)"/><rect class="cls-4" x="7044.05" y="6468.09" width="1.83" height="46.95" transform="translate(7210.6 6515.04) rotate(180)"/></svg>