<svg id="Layer_1" data-name="Layer 1" xmlns="http://www.w3.org/2000/svg" viewBox="0 0 1217.36 211.19"><defs><style>.cls-1{fill:#333;}.cls-2{fill:#c7a315;}.cls-3{fill:#666;}.cls-4{fill:#534741;}</style></defs><title>lokaltog_01</title><circle class="cls-1" cx="163.14" cy="190.09" r="16.1"/><path d="M6708.3,7272.89a11.11,11.11,0,1,1-11.1,11.1,11.11,11.11,0,0,1,11.1-11.1m0-10a21.11,21.11,0,1,0,21.1,21.1,21.1,21.1,0,0,0-21.1-21.1Z" transform="translate(-6545.16 -7093.9)"/><path class="cls-1" d="M6752.7,7300.1a16.11,16.11,0,1,1,16.1-16.11A16.12,16.12,0,0,1,6752.7,7300.1Z" transform="translate(-6545.16 -7093.9)"/><path d="M6752.7,7272.89a11.11,11.11,0,1,1-11.1,11.1,11.11,11.11,0,0,1,11.1-11.1m0-10a21.11,21.11,0,1,0,21.1,21.1,21.1,21.1,0,0,0-21.1-21.1Z" transform="translate(-6545.16 -7093.9)"/><circle class="cls-1" cx="585.46" cy="190.09" r="16.1"/><path d="M7130.62,7272.89a11.11,11.11,0,1,1-11.1,11.1,11.12,11.12,0,0,1,11.1-11.1m0-10a21.11,21.11,0,1,0,21.11,21.1,21.1,21.1,0,0,0-21.11-21.1Z" transform="translate(-6545.16 -7093.9)"/><path class="cls-2" d="M6701.08,7093.9c-107.86,0-155.92,140.78-155.92,195.3H6675c11.51,0,5.85-21.64,17.72-21.81,13.43-.19,47.18-.15,63.34-.08l141.32-173.41Z" transform="translate(-6545.16 -7093.9)"/><path d="M6708.3,7119.53h-7.22c-19.68,0-38.17,6.08-55,18.08-15.37,11-29.34,26.72-41.52,46.8-3.57,5.87-6.81,11.82-9.74,17.75H6708.3Z" transform="translate(-6545.16 -7093.9)"/><path d="M6886.55,7099l-133,163.14c-8.18,0-18.1,0-27.06,0-11,0-25.84,0-33.92.13-9.82.14-12.27,9-13.9,14.84a25.94,25.94,0,0,1-2.15,6c-.56.87-.88,1-1.6,1H6550.43c.67-13.22,3.81-30,8.84-46.94a274.2,274.2,0,0,1,27.79-63.37c20.69-34.1,57.27-74.74,114-74.74h185.47m10.79-5.13H6701.08c-107.86,0-155.92,140.78-155.92,195.3H6675c11.51,0,5.85-21.64,17.72-21.81,7.31-.1,20.62-.14,33.85-.14,11.09,0,22.12,0,29.49.06l141.32-173.41Z" transform="translate(-6545.16 -7093.9)"/><path class="cls-3" d="M6783.67,7289.2h314.41c7,0,7-21.81,13.92-21.81h35.08V7093.9H6878.17l-141.33,173.41c10.22,0,21.07.08,32.67.08C6774.9,7267.39,6776.73,7289.2,6783.67,7289.2Z" transform="translate(-6545.16 -7093.9)"/><path d="M7142,7099v163.23h-30c-2.45,0-5.94,1.06-8.62,6.12a51.24,51.24,0,0,0-3.18,8.31c-.69,2.17-1.93,6-2.89,7.39h-313c-1.23-1.37-2.92-6-3.85-8.57-2.37-6.51-4.83-13.25-10.94-13.25-7.63,0-14.88,0-21.91,0l133-163.19H7142m5.12-5.13H6878.17l-141.33,173.41c10.22,0,21.07.08,32.67.08,5.39,0,7.22,21.81,14.16,21.81h314.41c7,0,7-21.81,13.92-21.81h35.08V7093.9Z" transform="translate(-6545.16 -7093.9)"/><rect x="176.09" y="25.63" width="60.22" height="82.63"/><rect x="242.41" y="25.63" width="60.22" height="82.63"/><rect x="325.11" y="25.63" width="87.22" height="164.46"/><rect x="434.81" y="25.63" width="60.22" height="82.63"/><rect x="501.13" y="25.63" width="60.22" height="82.63"/><rect class="cls-4" x="601.92" width="6.76" height="173.49"/><path class="cls-1" d="M7599.38,7300.1a16.11,16.11,0,1,1,16.11-16.11A16.12,16.12,0,0,1,7599.38,7300.1Z" transform="translate(-6545.16 -7093.9)"/><path d="M7599.38,7272.89a11.11,11.11,0,1,1-11.1,11.1,11.12,11.12,0,0,1,11.1-11.1m0-10a21.11,21.11,0,1,0,21.11,21.1,21.1,21.1,0,0,0-21.11-21.1Z" transform="translate(-6545.16 -7093.9)"/><path class="cls-1" d="M7555,7300.1a16.11,16.11,0,1,1,16.11-16.11A16.13,16.13,0,0,1,7555,7300.1Z" transform="translate(-6545.16 -7093.9)"/><path d="M7555,7272.89a11.11,11.11,0,1,1-11.1,11.1,11.12,11.12,0,0,1,11.1-11.1m0-10a21.11,21.11,0,1,0,21.11,21.1,21.1,21.1,0,0,0-21.11-21.1Z" transform="translate(-6545.16 -7093.9)"/><circle class="cls-1" cx="631.9" cy="190.09" r="16.1"/><path d="M7177.06,7272.89A11.11,11.11,0,1,1,7166,7284a11.11,11.11,0,0,1,11.1-11.1m0-10a21.11,21.11,0,1,0,21.1,21.1,21.1,21.1,0,0,0-21.1-21.1Z" transform="translate(-6545.16 -7093.9)"/><path class="cls-2" d="M7606.6,7093.9c107.86,0,155.92,140.78,155.92,195.3H7632.73c-11.51,0-5.85-21.64-17.73-21.81-13.43-.19-47.17-.15-63.33-.08L7410.34,7093.9Z" transform="translate(-6545.16 -7093.9)"/><path d="M7599.38,7119.53h7.22c19.68,0,38.18,6.08,55,18.08,15.37,11,29.34,26.72,41.53,46.8,3.57,5.87,6.8,11.82,9.74,17.75H7599.38Z" transform="translate(-6545.16 -7093.9)"/><path d="M7421.13,7099l133,163.14c8.19,0,18.1,0,27.07,0,11,0,25.83,0,33.91.13,9.82.14,12.28,9,13.9,14.84a25.91,25.91,0,0,0,2.16,6c.55.87.88,1,1.6,1h124.53c-.67-13.22-3.81-30-8.85-46.94a274.17,274.17,0,0,0-27.78-63.37c-20.7-34.1-57.28-74.74-114-74.74H7421.13m-10.79-5.13H7606.6c107.86,0,155.92,140.78,155.92,195.3H7632.73c-11.51,0-5.85-21.64-17.73-21.81-7.3-.1-20.62-.14-33.84-.14-11.1,0-22.12,0-29.49.06L7410.34,7093.9Z" transform="translate(-6545.16 -7093.9)"/><path class="cls-3" d="M7524,7289.2H7209.61c-7,0-7-21.81-13.93-21.81H7160.6V7093.9h268.92l141.32,173.41c-10.21,0-21.06.08-32.66.08C7532.79,7267.39,7531,7289.2,7524,7289.2Z" transform="translate(-6545.16 -7093.9)"/><path d="M7165.73,7099v163.23h30c2.46,0,5.94,1.06,8.63,6.12a52.18,52.18,0,0,1,3.18,8.31c.69,2.17,1.93,6,2.89,7.39h313c1.23-1.37,2.92-6,3.86-8.57,2.37-6.51,4.82-13.25,10.94-13.25,7.63,0,14.88,0,21.9,0l-133-163.19H7165.73m-5.13-5.13h268.92l141.32,173.41c-10.21,0-21.06.08-32.66.08-5.39,0-7.22,21.81-14.16,21.81H7209.61c-7,0-7-21.81-13.93-21.81H7160.6V7093.9Z" transform="translate(-6545.16 -7093.9)"/><rect x="7526.21" y="7119.53" width="60.22" height="82.63" transform="translate(8567.48 7227.79) rotate(180)"/><rect x="7459.88" y="7119.53" width="60.22" height="82.63" transform="translate(8434.83 7227.79) rotate(180)"/><rect x="7350.19" y="7119.53" width="87.22" height="164.46" transform="translate(8242.43 7309.62) rotate(180)"/><rect x="7267.49" y="7119.53" width="60.22" height="82.63" transform="translate(8050.04 7227.79) rotate(180)"/><rect x="7201.16" y="7119.53" width="60.22" height="82.63" transform="translate(7917.39 7227.79) rotate(180)"/><rect class="cls-4" x="7153.84" y="7093.9" width="6.76" height="173.49" transform="translate(7769.28 7267.39) rotate(180)"/></svg>